# xmcd CD database file
#
# Track frame offsets:
#	150
#	15340
#	28793
#	52624
#	71624
#	82390
#	115113
#	126683
#	142078
#	159138
#	185627
#
# Disc length: 2675 seconds
#
# Revision: 0
# Processed by: cddbd v1.5.2PL0 Copyright (c) Steve Scherf et al.
# Submitted via: CDex 1.70beta2
#
DISCID=950a710b
DTITLE=Miles Davis - The Complete Recordings 1945 - 1960 - 34. Legrand Jazz
DYEAR=1958
DGENRE=Jazz
TTITLE0=The Jitterburg Waltz
TTITLE1=Nuages
TTITLE2=Night in Tunisia
TTITLE3=Blue And Sentimental
TTITLE4=Stomping At TheSavoy
TTITLE5=Django
TTITLE6=Wild Man Blues
TTITLE7=Rosetta
TTITLE8='Round Midnight
TTITLE9=Don't Get Around Much Anymore
TTITLE10=In A Mist
EXTD=YEAR: 1958
EXTT0=
EXTT1=
EXTT2=
EXTT3=
EXTT4=
EXTT5=
EXTT6=
EXTT7=
EXTT8=
EXTT9=
EXTT10=
PLAYORDER=
